{
	"asset":{
		"version":"2.0",
		"generator":"Created using the official Cinema 4D glTF Exporter 1.000x284978"
	},
	"scenes":[{
		"nodes":[0,
		5,
		6]
	}],
	"nodes":[{
		"translation":[-476.845703125,
		-55.673892974853519,
		338.9976501464844],
		"name":"Cloner.1",
		"rotation":[0.0,
		-0.7112749814987183,
		0.0,
		-0.7029138803482056],
		"scale":[1.0,
		1.0,
		1.0],
		"children":[1]
	},
	{
		"translation":[0.0,
		0.0,
		0.0],
		"name":"Polygon Reduction",
		"rotation":[0.0,
		0.0,
		0.0,
		-1.0],
		"scale":[1.0,
		1.0,
		1.0],
		"children":[2]
	},
	{
		"translation":[0.0,
		0.0,
		0.0],
		"name":"Null",
		"rotation":[0.0,
		0.0,
		0.0,
		-1.0],
		"scale":[0.753000020980835,
		0.75,
		0.75],
		"children":[3]
	},
	{
		"translation":[1.4210854715202005e-14,
		-1.4210854715202005e-14,
		0.0],
		"name":"Medusa Head",
		"rotation":[0.0,
		0.0,
		0.0,
		-1.0],
		"scale":[1.0,
		1.0,
		1.0],
		"mesh":0,
		"children":[4]
	},
	{
		"translation":[2.6422052683250896e-14,
		8.252573013305664,
		22.02012062072754],
		"name":"Medusa Head",
		"rotation":[0.0,
		0.0,
		0.0,
		-1.0],
		"scale":[1.0,
		1.0,
		1.0],
		"mesh":1
	},
	{
		"translation":[147.9530487060547,
		410.03619384765627,
		-66.73571014404297],
		"name":"OctaneCamera",
		"rotation":[-0.2740664780139923,
		-0.0038395079318434,
		-0.0010941850487142802,
		0.9617024660110474],
		"scale":[1.0,
		1.0,
		1.0],
		"camera":0
	},
	{
		"translation":[249.4888153076172,
		387.2697448730469,
		2187.747802734375],
		"name":"OctaneCamera.1",
		"rotation":[0.08746937662363053,
		-0.08632417768239975,
		-0.007608618587255478,
		-0.9923907518386841],
		"scale":[1.0,
		1.0,
		1.0],
		"camera":1
	}],
	"meshes":[{
		"name":"Medusa Head",
		"primitives":[{
			"attributes":{
				"NORMAL":6,
				"POSITION":5,
				"TEXCOORD_0":7
			},
			"indices":4,
			"material":0
		}]
	},
	{
		"name":"Medusa Head",
		"primitives":[{
			"attributes":{
				"NORMAL":10,
				"POSITION":9,
				"TEXCOORD_0":11
			},
			"indices":8,
			"material":0
		}]
	}],
	"accessors":[{
		"max":[6.0],
		"bufferView":0,
		"type":"SCALAR",
		"componentType":5126,
		"count":181,
		"byteOffset":0,
		"min":[0.0]
	},
	{
		"max":[548.6712036132813,
		192.79010009765626,
		587.4573364257813],
		"bufferView":0,
		"type":"VEC3",
		"componentType":5126,
		"count":181,
		"byteOffset":724,
		"min":[-594.5698852539063,
		-198.05889892578126,
		-562.3944702148438]
	},
	{
		"max":[6.0],
		"bufferView":1,
		"type":"SCALAR",
		"componentType":5126,
		"count":181,
		"byteOffset":0,
		"min":[0.0]
	},
	{
		"max":[6.092183646444482e-9,
		0.0,
		4.717559676237215e-9,
		1.0],
		"bufferView":1,
		"type":"VEC4",
		"componentType":5126,
		"count":181,
		"byteOffset":724,
		"min":[0.0,
		-1.0,
		0.0,
		-1.0]
	},
	{
		"max":[11292],
		"bufferView":2,
		"type":"SCALAR",
		"componentType":5123,
		"count":49665,
		"byteOffset":0,
		"min":[0]
	},
	{
		"max":[146.66188049316407,
		116.93731689453125,
		95.85182189941406],
		"bufferView":3,
		"type":"VEC3",
		"componentType":5126,
		"count":11293,
		"byteOffset":0,
		"min":[-167.05609130859376,
		-108.14456939697266,
		-104.45501708984375]
	},
	{
		"max":[0.999125063419342,
		0.9985625743865967,
		0.9999688267707825],
		"bufferView":3,
		"type":"VEC3",
		"componentType":5126,
		"count":11293,
		"byteOffset":12,
		"min":[-0.999000072479248,
		-0.9996563196182251,
		-0.9999375343322754]
	},
	{
		"max":[0.9998538494110107,
		0.9928392171859741],
		"bufferView":3,
		"type":"VEC2",
		"componentType":5126,
		"count":11293,
		"byteOffset":24,
		"min":[0.0,
		0.0]
	},
	{
		"max":[10329],
		"bufferView":4,
		"type":"SCALAR",
		"componentType":5123,
		"count":43944,
		"byteOffset":0,
		"min":[0]
	},
	{
		"max":[120.84441375732422,
		96.28600311279297,
		79.0105209350586],
		"bufferView":5,
		"type":"VEC3",
		"componentType":5126,
		"count":10330,
		"byteOffset":0,
		"min":[-137.74493408203126,
		-89.27305603027344,
		-86.1711196899414]
	},
	{
		"max":[0.999125063419342,
		0.9963125586509705,
		0.9999688267707825],
		"bufferView":5,
		"type":"VEC3",
		"componentType":5126,
		"count":10330,
		"byteOffset":12,
		"min":[-0.999000072479248,
		-0.9996563196182251,
		-0.9999688267707825]
	},
	{
		"max":[0.999686598777771,
		0.9951972961425781],
		"bufferView":5,
		"type":"VEC2",
		"componentType":5126,
		"count":10330,
		"byteOffset":24,
		"min":[0.0,
		0.0]
	}],
	"cameras":[{
		"type":"perspective",
		"perspective":{
			"znear":0.009999999776482582,
			"zfar":10000000000.0,
			"aspectRatio":1.0,
			"yfov":0.691111147403717
		}
	},
	{
		"type":"perspective",
		"perspective":{
			"znear":0.009999999776482582,
			"zfar":10000000000.0,
			"aspectRatio":1.0,
			"yfov":0.691111147403717
		}
	}],
	"bufferViews":[{
		"buffer":0,
		"byteOffset":0,
		"byteLength":2896
	},
	{
		"buffer":0,
		"byteOffset":2896,
		"byteLength":3620
	},
	{
		"buffer":1,
		"byteOffset":0,
		"byteLength":99330,
		"target":34963
	},
	{
		"buffer":1,
		"byteOffset":99332,
		"byteLength":361376,
		"target":34962,
		"byteStride":32
	},
	{
		"buffer":2,
		"byteOffset":0,
		"byteLength":87888,
		"target":34963
	},
	{
		"buffer":2,
		"byteOffset":87888,
		"byteLength":330560,
		"target":34962,
		"byteStride":32
	}],
	"buffers":[{
		"uri":"data:application/octet-stream;base64,",
		"byteLength":6516
	},
	{
		"uri":"data:application/octet-stream;base64,",
		"byteLength":460708
	},
	{
		"uri":"data:application/octet-stream;base64,",
		"byteLength":418448
	}],
	"materials":[{
		"pbrMetallicRoughness":{
			"baseColorFactor":[0.8,
			0.8,
			0.8,
			1.0],
			"metallicFactor":0.13,
			"roughnessFactor":0.25
		},
		"emissiveFactor":[0.0,
		0.0,
		0.0],
		"alphaMode":"OPAQUE",
		"doubleSided":false,
		"name":"Mat.1"
	}],
	"animations":[{
		"samplers":[{
			"output":1,
			"input":0,
			"interpolation":"LINEAR"
		},
		{
			"output":3,
			"input":2,
			"interpolation":"LINEAR"
		}],
		"channels":[{
			"sampler":0,
			"target":{
				"node":0,
				"path":"translation"
			}
		},
		{
			"sampler":1,
			"target":{
				"node":0,
				"path":"rotation"
			}
		}]
	}]
}