{
	"asset":{
		"version":"2.0",
		"generator":"Created using the official Cinema 4D glTF Exporter 1.000x284978"
	},
	"scenes":[{
		"nodes":[0]
	}],
	"nodes":[{
		"name":"Cloner.1",
		"translation":[-87.01190185546875,
		123.26812744140625,
		-606.8024291992188],
		"rotation":[0.0,
		0.0,
		0.0,
		-1.0],
		"scale":[1.0,
		1.0,
		1.0],
		"children":[1]
	},
	{
		"name":"Polygon Reduction",
		"translation":[0.0,
		0.0,
		0.0],
		"rotation":[0.0,
		0.0,
		0.0,
		-1.0],
		"scale":[1.350000023841858,
		1.350000023841858,
		1.350000023841858],
		"children":[2]
	},
	{
		"name":"Null",
		"translation":[0.0,
		0.0,
		0.0],
		"rotation":[0.0,
		0.0,
		0.0,
		-1.0],
		"scale":[0.753000020980835,
		0.75,
		0.75],
		"children":[3]
	},
	{
		"name":"Medusa Head",
		"translation":[1.4210854715202005e-14,
		-1.4210854715202005e-14,
		0.0],
		"rotation":[0.0,
		0.0,
		0.0,
		-1.0],
		"scale":[1.0,
		1.0,
		1.0],
		"mesh":0,
		"children":[4]
	},
	{
		"name":"Medusa Head",
		"translation":[2.6422052683250896e-14,
		8.252573013305664,
		22.02012062072754],
		"rotation":[0.0,
		0.0,
		0.0,
		-1.0],
		"scale":[1.0,
		1.0,
		1.0],
		"mesh":1
	}],
	"meshes":[{
		"name":"Medusa Head",
		"primitives":[{
			"attributes":{
				"POSITION":5,
				"NORMAL":6,
				"TEXCOORD_0":7
			},
			"indices":4,
			"material":0
		}]
	},
	{
		"name":"Medusa Head",
		"primitives":[{
			"attributes":{
				"POSITION":9,
				"NORMAL":10,
				"TEXCOORD_0":11
			},
			"indices":8,
			"material":1
		}]
	}],
	"accessors":[{
		"bufferView":0,
		"type":"SCALAR",
		"componentType":5126,
		"count":181,
		"min":[0.0],
		"byteOffset":0,
		"max":[6.0]
	},
	{
		"bufferView":0,
		"type":"VEC3",
		"componentType":5126,
		"count":181,
		"min":[-618.3587036132813,
		-175.70204162597657,
		-617.320068359375],
		"byteOffset":724,
		"max":[604.7310180664063,
		167.94525146484376,
		624.6532592773438]
	},
	{
		"bufferView":1,
		"type":"SCALAR",
		"componentType":5126,
		"count":181,
		"min":[0.0],
		"byteOffset":0,
		"max":[6.0]
	},
	{
		"bufferView":1,
		"type":"VEC4",
		"componentType":5126,
		"count":181,
		"min":[0.0,
		-1.0,
		0.0,
		-1.0],
		"byteOffset":724,
		"max":[0.0,
		0.0,
		0.0,
		1.0]
	},
	{
		"bufferView":2,
		"type":"SCALAR",
		"componentType":5123,
		"count":49665,
		"min":[0],
		"byteOffset":0,
		"max":[14753]
	},
	{
		"bufferView":3,
		"type":"VEC3",
		"componentType":5126,
		"count":14754,
		"min":[-167.05609130859376,
		-108.14456939697266,
		-104.45501708984375],
		"byteOffset":0,
		"max":[146.66188049316407,
		116.93731689453125,
		95.85182189941406]
	},
	{
		"bufferView":3,
		"type":"VEC3",
		"componentType":5126,
		"count":14754,
		"min":[-0.999000072479248,
		-0.9996563196182251,
		-0.9998750686645508],
		"byteOffset":12,
		"max":[0.999125063419342,
		0.9985625743865967,
		0.9999688267707825]
	},
	{
		"bufferView":3,
		"type":"VEC2",
		"componentType":5126,
		"count":14754,
		"min":[0.0003268360742367804,
		0.0003268360742367804],
		"byteOffset":24,
		"max":[0.9990243911743164,
		0.9969462156295776]
	},
	{
		"bufferView":4,
		"type":"SCALAR",
		"componentType":5123,
		"count":43944,
		"min":[0],
		"byteOffset":0,
		"max":[13471]
	},
	{
		"bufferView":5,
		"type":"VEC3",
		"componentType":5126,
		"count":13472,
		"min":[-137.74493408203126,
		-89.27305603027344,
		-86.1711196899414],
		"byteOffset":0,
		"max":[120.84441375732422,
		96.28600311279297,
		79.0105209350586]
	},
	{
		"bufferView":5,
		"type":"VEC3",
		"componentType":5126,
		"count":13472,
		"min":[-0.999000072479248,
		-0.9996563196182251,
		-0.9999688267707825],
		"byteOffset":12,
		"max":[0.999125063419342,
		0.9962813258171082,
		0.9999688267707825]
	},
	{
		"bufferView":5,
		"type":"VEC2",
		"componentType":5126,
		"count":13472,
		"min":[0.0003256509080529213,
		0.0003256509080529213],
		"byteOffset":24,
		"max":[0.9102392196655273,
		0.9990243911743164]
	}],
	"buffers":[{
		"uri":"data:application/octet-stream;base64,",
		"byteLength":6516
	},
	{
		"uri":"data:application/octet-stream;base64,",
		"byteLength":571460
	},
	{
		"uri":"data:application/octet-stream;base64,",
		"byteLength":518992
	}],
	"bufferViews":[{
		"buffer":0,
		"byteOffset":0,
		"byteLength":2896
	},
	{
		"buffer":0,
		"byteOffset":2896,
		"byteLength":3620
	},
	{
		"buffer":1,
		"byteOffset":0,
		"byteLength":99330,
		"target":34963
	},
	{
		"buffer":1,
		"byteOffset":99332,
		"byteLength":472128,
		"target":34962,
		"byteStride":32
	},
	{
		"buffer":2,
		"byteOffset":0,
		"byteLength":87888,
		"target":34963
	},
	{
		"buffer":2,
		"byteOffset":87888,
		"byteLength":431104,
		"target":34962,
		"byteStride":32
	}],
	"images":[{
		"uri":"data:image/jpeg;base64,"
	},
	{
		"uri":"data:image/jpeg;base64,"
	}],
	"samplers":[{
		"magFilter":9729,
		"minFilter":9729,
		"wrapS":10497,
		"wrapT":10497
	},
	{
		"magFilter":9729,
		"minFilter":9729,
		"wrapS":10497,
		"wrapT":10497
	}],
	"textures":[{
		"sampler":0,
		"source":0
	},
	{
		"sampler":1,
		"source":1
	}],
	"materials":[{
		"pbrMetallicRoughness":{
			"baseColorTexture":{
				"index":0
			},
			"baseColorFactor":[0.8,
			0.8,
			0.8,
			1.0],
			"metallicFactor":0.1,
			"roughnessFactor":0.25
		},
		"emissiveFactor":[0.0,
		0.0,
		0.0],
		"alphaMode":"OPAQUE",
		"doubleSided":false,
		"name":"Mat"
	},
	{
		"pbrMetallicRoughness":{
			"baseColorTexture":{
				"index":1
			},
			"baseColorFactor":[0.8,
			0.8,
			0.8,
			1.0],
			"metallicFactor":0.1,
			"roughnessFactor":0.25
		},
		"emissiveFactor":[0.0,
		0.0,
		0.0],
		"alphaMode":"OPAQUE",
		"doubleSided":false,
		"name":"Mat"
	}],
	"animations":[{
		"channels":[{
			"sampler":0,
			"target":{
				"node":0,
				"path":"translation"
			}
		},
		{
			"sampler":1,
			"target":{
				"node":0,
				"path":"rotation"
			}
		}],
		"samplers":[{
			"input":0,
			"interpolation":"LINEAR",
			"output":1
		},
		{
			"input":2,
			"interpolation":"LINEAR",
			"output":3
		}]
	}]
}