{
	"asset":{
		"version":"2.0",
		"generator":"Created using the official Cinema 4D glTF Exporter 1.000x284978"
	},
	"scenes":[{
		"nodes":[0]
	}],
	"nodes":[{
		"rotation":[0.685361385345459,
		0.6215046048164368,
		-0.2903866767883301,
		-0.24430996179580689],
		"name":"Cloner",
		"translation":[328.81903076171877,
		-182.32217407226563,
		-159.42660522460938],
		"scale":[1.0,
		1.0,
		1.0],
		"children":[1]
	},
	{
		"rotation":[0.0,
		0.0,
		0.9659258127212524,
		-0.258819043636322],
		"name":"Manta",
		"translation":[0.0,
		0.0,
		0.0],
		"scale":[35.0,
		35.0,
		35.0],
		"children":[2,
		3]
	},
	{
		"rotation":[0.7071067690849304,
		0.0,
		0.0,
		-0.7071067690849304],
		"name":"Subdivision Surface",
		"translation":[0.0,
		0.21858780086040498,
		-1.6698096990585328],
		"scale":[1.0,
		1.0,
		1.0],
		"mesh":0,
		"skin":0
	},
	{
		"rotation":[0.7070859670639038,
		0.005424920469522476,
		0.7070859670639038,
		0.005424920469522476],
		"name":"Bone032",
		"translation":[-3.133837012114782e-8,
		0.22321633994579316,
		-0.7169383764266968],
		"scale":[1.0,
		1.0,
		1.0],
		"children":[4,
		5,
		9,
		13]
	},
	{
		"rotation":[0.0,
		0.0,
		0.0,
		-1.0],
		"name":"Bone033",
		"translation":[1.8003957271575928,
		3.337860050578456e-7,
		5.7221551941211149e-8],
		"scale":[1.0,
		1.0,
		1.0]
	},
	{
		"rotation":[0.5485827326774597,
		-0.5237874984741211,
		0.45466893911361697,
		0.46688312292099],
		"name":"Bone034",
		"translation":[0.5762609839439392,
		0.10427508503198624,
		0.13241851329803468],
		"scale":[1.0,
		1.0,
		1.0],
		"children":[6]
	},
	{
		"rotation":[-0.002111551584675908,
		0.17357780039310456,
		-0.011979296803474427,
		-0.9847450256347656],
		"name":"Bone035",
		"translation":[0.9056299328804016,
		1.5497207073167375e-7,
		2.2204460823375377e-17],
		"scale":[0.9999999403953552,
		0.9999999403953552,
		1.0],
		"children":[7]
	},
	{
		"rotation":[-0.00029637254192493856,
		0.113498255610466,
		0.0038899569772183897,
		0.9935305118560791],
		"name":"Bone036",
		"translation":[1.119986653327942,
		-1.1920929132713809e-8,
		0.0],
		"scale":[0.9999998211860657,
		1.0000001192092896,
		1.0000001192092896],
		"children":[8]
	},
	{
		"rotation":[-4.93824356406769e-11,
		-3.975803247822235e-17,
		1.9633484520907467e-27,
		-1.0],
		"name":"Bone037",
		"translation":[1.3530187606811524,
		1.0323129018274813e-8,
		3.2708049957363985e-7],
		"scale":[1.0,
		1.0000001192092896,
		1.0]
	},
	{
		"rotation":[-0.46688327193260195,
		-0.45466896891593935,
		0.5237875580787659,
		-0.5485824346542358],
		"name":"Bone034(mirrored)",
		"translation":[0.5762609243392944,
		0.10427507013082504,
		-0.1327604502439499],
		"scale":[1.0000001192092896,
		0.9999998807907105,
		1.0000001192092896],
		"children":[10]
	},
	{
		"rotation":[-0.0021114556584507229,
		-0.1735779345035553,
		-0.011979131028056145,
		0.9847450256347656],
		"name":"Bone035(mirrored)",
		"translation":[0.9056296348571777,
		2.3841858265427619e-8,
		3.099441414633475e-7],
		"scale":[0.9999998807907105,
		1.0000001192092896,
		0.9999998807907105],
		"children":[11]
	},
	{
		"rotation":[-0.0003618426853790879,
		-0.11349726468324661,
		0.0038981055840849878,
		-0.9935305714607239],
		"name":"Bone036(mirrored)",
		"translation":[1.1199862957000733,
		-1.3113022134803033e-7,
		5.329070729958988e-16],
		"scale":[0.9999996423721314,
		0.9999999403953552,
		0.9999999403953552],
		"children":[12]
	},
	{
		"rotation":[7.404016599821262e-8,
		-1.7997051331847259e-14,
		-2.384185791015625e-7,
		1.0],
		"name":"Bone037(mirrored)",
		"translation":[1.3530189990997315,
		-1.9669532491661813e-7,
		8.1062319168268e-7],
		"scale":[1.0000004768371583,
		1.0000001192092896,
		0.9999999403953552]
	},
	{
		"rotation":[0.06757740676403046,
		0.0012010697973892093,
		-0.9975557327270508,
		0.0177302323281765],
		"name":"Bone025",
		"translation":[-1.063849925994873,
		-0.024359513074159623,
		-2.3841858265427619e-8],
		"scale":[1.0,
		1.0,
		1.0],
		"children":[14]
	},
	{
		"rotation":[-0.0019734192173928024,
		-0.031211435794830323,
		-0.06389486789703369,
		0.997466504573822],
		"name":"Bone026",
		"translation":[0.4558677673339844,
		3.9339064983323626e-7,
		-4.3200997792113007e-13],
		"scale":[0.9999998807907105,
		0.9999998807907105,
		1.0],
		"children":[15]
	},
	{
		"rotation":[-0.0013847709633409978,
		-0.07056943327188492,
		-0.0220465287566185,
		0.9972622394561768],
		"name":"Bone027",
		"translation":[0.6020129919052124,
		4.7683716530855239e-8,
		1.2903146284770629e-7],
		"scale":[1.0000003576278687,
		1.0000003576278687,
		1.0],
		"children":[16]
	},
	{
		"rotation":[-0.0026296169962733986,
		0.06834857165813446,
		-0.038943443447351459,
		-0.9968976974487305],
		"name":"Bone028",
		"translation":[0.5866691470146179,
		8.106231348392612e-7,
		7.348977248966549e-8],
		"scale":[1.0,
		1.0,
		1.0],
		"children":[17]
	},
	{
		"rotation":[-0.000403690617531538,
		0.019273659214377404,
		0.024397803470492364,
		0.9995164275169373],
		"name":"Bone029",
		"translation":[0.5399318933486939,
		2.3841860041784458e-8,
		6.630020976672313e-8],
		"scale":[0.9999998211860657,
		0.9999998211860657,
		1.0],
		"children":[18]
	},
	{
		"rotation":[-0.0008746576495468617,
		0.1601286381483078,
		0.019608821719884874,
		0.9869009852409363],
		"name":"Bone030",
		"translation":[0.48808708786964419,
		2.8865797581462888e-16,
		5.9005106578524649e-8],
		"scale":[0.9999997615814209,
		0.9999997615814209,
		1.0],
		"children":[19]
	},
	{
		"rotation":[0.0,
		-2.7755575615628916e-17,
		0.0,
		-1.0],
		"name":"Bone031",
		"translation":[0.4558528959751129,
		-8.940696183401542e-9,
		5.454285201267339e-8],
		"scale":[1.0000001192092896,
		1.0000001192092896,
		1.0]
	}],
	"meshes":[{
		"primitives":[{
			"attributes":{
				"POSITION":7,
				"NORMAL":8,
				"TEXCOORD_0":9,
				"JOINTS_0":10,
				"WEIGHTS_0":11
			},
			"indices":6,
			"material":0
		}],
		"name":"Subdivision Surface"
	}],
	"textures":[{
		"sampler":0,
		"source":0
	}],
	"skins":[{
		"inverseBindMatrices":34,
		"joints":[4,
		3,
		6,
		5,
		7,
		8,
		13,
		10,
		9,
		11,
		12,
		14,
		15,
		16,
		17,
		18,
		19]
	}],
	"accessors":[{
		"type":"SCALAR",
		"bufferView":0,
		"byteOffset":0,
		"componentType":5126,
		"count":151,
		"min":[0.0],
		"max":[5.0]
	},
	{
		"type":"VEC3",
		"bufferView":0,
		"byteOffset":604,
		"componentType":5126,
		"count":151,
		"min":[-920.464599609375,
		-183.14476013183595,
		-1121.23583984375],
		"max":[328.81903076171877,
		-99.067138671875,
		-159.42660522460938]
	},
	{
		"type":"SCALAR",
		"bufferView":1,
		"byteOffset":0,
		"componentType":5126,
		"count":151,
		"min":[0.0],
		"max":[5.0]
	},
	{
		"type":"VEC4",
		"bufferView":1,
		"byteOffset":604,
		"componentType":5126,
		"count":151,
		"min":[0.5075809359550476,
		0.4501529633998871,
		-0.5444489121437073,
		-0.4940164089202881],
		"max":[0.7443253993988037,
		0.6676746010780335,
		-0.0015440823044627905,
		-0.012164663523435593]
	},
	{
		"type":"SCALAR",
		"bufferView":2,
		"byteOffset":0,
		"componentType":5126,
		"count":151,
		"min":[0.0],
		"max":[5.0]
	},
	{
		"type":"VEC4",
		"bufferView":2,
		"byteOffset":604,
		"componentType":5126,
		"count":151,
		"min":[0.0,
		0.0,
		0.5,
		-0.8660253882408142],
		"max":[0.0,
		0.0,
		0.9659258127212524,
		-0.258819043636322]
	},
	{
		"type":"SCALAR",
		"bufferView":3,
		"byteOffset":0,
		"componentType":5123,
		"count":126720,
		"min":[0],
		"max":[25373]
	},
	{
		"type":"VEC3",
		"bufferView":4,
		"byteOffset":0,
		"componentType":5126,
		"count":25374,
		"min":[-3.2809581756591799,
		-3.3267805576324465,
		-0.4241354167461395],
		"max":[3.280959129333496,
		3.196096420288086,
		1.06050705909729]
	},
	{
		"type":"VEC3",
		"bufferView":4,
		"byteOffset":12,
		"componentType":5126,
		"count":25374,
		"min":[-0.999711811542511,
		-0.9998981952667236,
		-0.9999983906745911],
		"max":[0.9995537996292114,
		0.9995248913764954,
		0.9999046921730042]
	},
	{
		"type":"VEC2",
		"bufferView":4,
		"byteOffset":24,
		"componentType":5126,
		"count":25374,
		"min":[0.011623155325651169,
		0.008372541517019272],
		"max":[0.9805725812911987,
		0.9884665012359619]
	},
	{
		"type":"VEC4",
		"bufferView":5,
		"byteOffset":0,
		"componentType":5123,
		"count":25374,
		"min":[0,
		0,
		0,
		0],
		"max":[16,
		16,
		14,
		13]
	},
	{
		"type":"VEC4",
		"bufferView":6,
		"byteOffset":0,
		"componentType":5126,
		"count":25374,
		"min":[0.37499046325683596,
		0.0,
		0.0,
		0.0],
		"max":[1.0,
		0.49999237060546877,
		0.24998855590820313,
		0.0]
	},
	{
		"type":"SCALAR",
		"bufferView":7,
		"byteOffset":0,
		"componentType":5126,
		"count":151,
		"min":[0.0],
		"max":[5.0]
	},
	{
		"type":"VEC3",
		"bufferView":7,
		"byteOffset":604,
		"componentType":5126,
		"count":151,
		"min":[-3.133837012114782e-8,
		0.22321633994579316,
		-0.7333171367645264],
		"max":[-3.133837012114782e-8,
		0.24640199542045594,
		-0.6838708519935608]
	},
	{
		"type":"SCALAR",
		"bufferView":8,
		"byteOffset":0,
		"componentType":5126,
		"count":151,
		"min":[0.0],
		"max":[5.0]
	},
	{
		"type":"VEC4",
		"bufferView":8,
		"byteOffset":604,
		"componentType":5126,
		"count":151,
		"min":[-0.005114933010190725,
		0.0030210332479327919,
		-0.012163915671408177,
		-0.999921441078186],
		"max":[-0.00003675047992146574,
		0.4204675257205963,
		0.012161986902356148,
		0.9997628927230835]
	},
	{
		"type":"SCALAR",
		"bufferView":9,
		"byteOffset":0,
		"componentType":5126,
		"count":151,
		"min":[0.0],
		"max":[5.0]
	},
	{
		"type":"VEC4",
		"bufferView":9,
		"byteOffset":604,
		"componentType":5126,
		"count":151,
		"min":[-0.0008314574952237308,
		0.003983877133578062,
		-0.004033187869936228,
		-0.999871551990509],
		"max":[0.00023572114878334105,
		0.326821893453598,
		0.003974064253270626,
		0.9999850988388062]
	},
	{
		"type":"SCALAR",
		"bufferView":10,
		"byteOffset":0,
		"componentType":5126,
		"count":151,
		"min":[0.0],
		"max":[5.0]
	},
	{
		"type":"VEC4",
		"bufferView":10,
		"byteOffset":604,
		"componentType":5126,
		"count":151,
		"min":[-0.005114931613206863,
		-0.42046740651130679,
		-0.012163760140538216,
		-0.9997628927230835],
		"max":[-0.000036680074117612097,
		-0.0030211752746254207,
		0.012161833234131337,
		0.999921441078186]
	},
	{
		"type":"SCALAR",
		"bufferView":11,
		"byteOffset":0,
		"componentType":5126,
		"count":151,
		"min":[0.0],
		"max":[5.0]
	},
	{
		"type":"VEC4",
		"bufferView":11,
		"byteOffset":604,
		"componentType":5126,
		"count":151,
		"min":[-0.0008354877936653793,
		-0.32682278752326968,
		-0.004033766686916351,
		-0.9999850988388062],
		"max":[0.0002331373980268836,
		-0.003983945120126009,
		0.003977942280471325,
		0.999871551990509]
	},
	{
		"type":"SCALAR",
		"bufferView":12,
		"byteOffset":0,
		"componentType":5126,
		"count":151,
		"min":[0.0],
		"max":[5.0]
	},
	{
		"type":"VEC4",
		"bufferView":12,
		"byteOffset":604,
		"componentType":5126,
		"count":151,
		"min":[0.0014359201304614544,
		0.000025492237909929828,
		-0.999841034412384,
		-0.01777080073952675],
		"max":[0.06757740676403046,
		0.0012010697973892093,
		0.99983811378479,
		0.017770852893590928]
	},
	{
		"type":"SCALAR",
		"bufferView":13,
		"byteOffset":0,
		"componentType":5126,
		"count":151,
		"min":[0.0],
		"max":[5.0]
	},
	{
		"type":"VEC4",
		"bufferView":13,
		"byteOffset":604,
		"componentType":5126,
		"count":151,
		"min":[-0.0034701614640653135,
		-0.05538957566022873,
		-0.06399934738874436,
		-0.997963011264801],
		"max":[0.00005858427903149277,
		-0.0001294081303058192,
		0.064000703394413,
		0.9979640245437622]
	},
	{
		"type":"SCALAR",
		"bufferView":14,
		"byteOffset":0,
		"componentType":5126,
		"count":151,
		"min":[0.0],
		"max":[5.0]
	},
	{
		"type":"VEC4",
		"bufferView":14,
		"byteOffset":604,
		"componentType":5126,
		"count":151,
		"min":[-0.0014573612716048956,
		-0.07220802456140518,
		-0.022088350728154184,
		-0.9997715950012207],
		"max":[0.00019742842414416373,
		-0.0008024574490264058,
		0.022109799087047578,
		0.9997630715370178]
	},
	{
		"type":"SCALAR",
		"bufferView":15,
		"byteOffset":0,
		"componentType":5126,
		"count":151,
		"min":[0.0],
		"max":[5.0]
	},
	{
		"type":"VEC4",
		"bufferView":15,
		"byteOffset":604,
		"componentType":5126,
		"count":151,
		"min":[-0.0033317827619612219,
		0.0005887208972126246,
		-0.04091360419988632,
		-0.9991843104362488],
		"max":[0.00035788159584626555,
		0.09460923075675965,
		0.04093688726425171,
		0.9991940259933472]
	},
	{
		"type":"SCALAR",
		"bufferView":16,
		"byteOffset":0,
		"componentType":5126,
		"count":151,
		"min":[0.0],
		"max":[5.0]
	},
	{
		"type":"VEC4",
		"bufferView":16,
		"byteOffset":604,
		"componentType":5126,
		"count":151,
		"min":[-0.0015469326172024012,
		0.0007350207888521254,
		-0.026950808241963388,
		-0.9997145533561707],
		"max":[0.0002099799457937479,
		0.13070634007453919,
		0.027011055499315263,
		0.9997096657752991]
	},
	{
		"type":"SCALAR",
		"bufferView":17,
		"byteOffset":0,
		"componentType":5126,
		"count":151,
		"min":[0.0],
		"max":[5.0]
	},
	{
		"type":"VEC4",
		"bufferView":17,
		"byteOffset":604,
		"componentType":5126,
		"count":151,
		"min":[-0.002438208321109414,
		0.0013043135404586793,
		-0.020189056172966958,
		-0.9998563528060913],
		"max":[0.00244953203946352,
		0.17798057198524476,
		0.020250897854566575,
		0.9999009370803833]
	},
	{
		"type":"MAT4",
		"bufferView":18,
		"byteOffset":0,
		"componentType":5126,
		"count":17,
		"min":[-0.9879420399665833,
		-0.03716690093278885,
		-0.47950345277786257,
		0.0,
		-0.9998822808265686,
		-0.9999613165855408,
		-0.20181941986083985,
		0.0,
		-0.14836013317108155,
		-0.9998822808265686,
		-7.673126414784489e-16,
		0.0,
		-3.4503283500671388,
		-1.566795825958252,
		-0.5483664274215698,
		1.0],
		"max":[0.987942099571228,
		0.03594820201396942,
		1.0,
		0.0,
		0.991644561290741,
		0.9999622702598572,
		0.156329944729805,
		0.0,
		0.4795725345611572,
		0.9997959733009338,
		0.9885810613632202,
		0.0,
		-0.11044181138277054,
		1.5667927265167237,
		0.4665444791316986,
		1.0]
	}],
	"bufferViews":[{
		"buffer":0,
		"byteOffset":0,
		"byteLength":2416
	},
	{
		"buffer":0,
		"byteOffset":2416,
		"byteLength":3020
	},
	{
		"buffer":1,
		"byteOffset":0,
		"byteLength":3020
	},
	{
		"buffer":2,
		"byteOffset":0,
		"byteLength":253440,
		"target":34963
	},
	{
		"buffer":2,
		"byteOffset":253440,
		"byteLength":811968,
		"target":34962,
		"byteStride":32
	},
	{
		"buffer":2,
		"byteOffset":1065408,
		"byteLength":202992,
		"target":34962
	},
	{
		"buffer":2,
		"byteOffset":1268400,
		"byteLength":405984,
		"target":34962
	},
	{
		"buffer":3,
		"byteOffset":0,
		"byteLength":2416
	},
	{
		"buffer":4,
		"byteOffset":0,
		"byteLength":3020
	},
	{
		"buffer":5,
		"byteOffset":0,
		"byteLength":3020
	},
	{
		"buffer":6,
		"byteOffset":0,
		"byteLength":3020
	},
	{
		"buffer":7,
		"byteOffset":0,
		"byteLength":3020
	},
	{
		"buffer":8,
		"byteOffset":0,
		"byteLength":3020
	},
	{
		"buffer":9,
		"byteOffset":0,
		"byteLength":3020
	},
	{
		"buffer":10,
		"byteOffset":0,
		"byteLength":3020
	},
	{
		"buffer":11,
		"byteOffset":0,
		"byteLength":3020
	},
	{
		"buffer":12,
		"byteOffset":0,
		"byteLength":3020
	},
	{
		"buffer":13,
		"byteOffset":0,
		"byteLength":3020
	},
	{
		"buffer":14,
		"byteOffset":0,
		"byteLength":1088
	}],
	"buffers":[{
		"uri":"data:application/octet-stream;base64,",
		"byteLength":5436
	},
	{
		"uri":"data:application/octet-stream;base64,",
		"byteLength":3020
	},
	{
		"uri":"data:application/octet-stream;base64,",
		"byteLength":1674384
	},
	{
		"uri":"data:application/octet-stream;base64,",
		"byteLength":2416
	},
	{
		"uri":"data:application/octet-stream;base64,",
		"byteLength":3020
	},
	{
		"uri":"data:application/octet-stream;base64,",
		"byteLength":3020
	},
	{
		"uri":"data:application/octet-stream;base64,",
		"byteLength":3020
	},
	{
		"uri":"data:application/octet-stream;base64,",
		"byteLength":3020
	},
	{
		"uri":"data:application/octet-stream;base64,",
		"byteLength":3020
	},
	{
		"uri":"data:application/octet-stream;base64,",
		"byteLength":3020
	},
	{
		"uri":"data:application/octet-stream;base64,",
		"byteLength":3020
	},
	{
		"uri":"data:application/octet-stream;base64,",
		"byteLength":3020
	},
	{
		"uri":"data:application/octet-stream;base64,",
		"byteLength":3020
	},
	{
		"uri":"data:application/octet-stream;base64,",
		"byteLength":3020
	},
	{
		"uri":"data:application/octet-stream;base64,",
		"byteLength":1088
	}],
	"images":[{
		"uri":"data:image/jpeg;base64,"
	}],
	"samplers":[{
		"magFilter":9729,
		"minFilter":9729,
		"wrapS":10497,
		"wrapT":10497
	}],
	"materials":[{
		"pbrMetallicRoughness":{
			"baseColorTexture":{
				"index":0
			},
			"baseColorFactor":[0.8,
			0.8,
			0.8,
			1.0],
			"metallicFactor":0.1,
			"roughnessFactor":0.15
		},
		"emissiveFactor":[0.0,
		0.0,
		0.0],
		"alphaMode":"OPAQUE",
		"doubleSided":false,
		"name":"Mat"
	}],
	"animations":[{
		"samplers":[{
			"input":0,
			"interpolation":"LINEAR",
			"output":1
		},
		{
			"input":2,
			"interpolation":"LINEAR",
			"output":3
		},
		{
			"input":4,
			"interpolation":"LINEAR",
			"output":5
		},
		{
			"input":12,
			"interpolation":"LINEAR",
			"output":13
		},
		{
			"input":14,
			"interpolation":"LINEAR",
			"output":15
		},
		{
			"input":16,
			"interpolation":"LINEAR",
			"output":17
		},
		{
			"input":18,
			"interpolation":"LINEAR",
			"output":19
		},
		{
			"input":20,
			"interpolation":"LINEAR",
			"output":21
		},
		{
			"input":22,
			"interpolation":"LINEAR",
			"output":23
		},
		{
			"input":24,
			"interpolation":"LINEAR",
			"output":25
		},
		{
			"input":26,
			"interpolation":"LINEAR",
			"output":27
		},
		{
			"input":28,
			"interpolation":"LINEAR",
			"output":29
		},
		{
			"input":30,
			"interpolation":"LINEAR",
			"output":31
		},
		{
			"input":32,
			"interpolation":"LINEAR",
			"output":33
		}],
		"channels":[{
			"sampler":0,
			"target":{
				"node":0,
				"path":"translation"
			}
		},
		{
			"sampler":1,
			"target":{
				"node":0,
				"path":"rotation"
			}
		},
		{
			"sampler":2,
			"target":{
				"node":1,
				"path":"rotation"
			}
		},
		{
			"sampler":3,
			"target":{
				"node":3,
				"path":"translation"
			}
		},
		{
			"sampler":4,
			"target":{
				"node":6,
				"path":"rotation"
			}
		},
		{
			"sampler":5,
			"target":{
				"node":7,
				"path":"rotation"
			}
		},
		{
			"sampler":6,
			"target":{
				"node":10,
				"path":"rotation"
			}
		},
		{
			"sampler":7,
			"target":{
				"node":11,
				"path":"rotation"
			}
		},
		{
			"sampler":8,
			"target":{
				"node":13,
				"path":"rotation"
			}
		},
		{
			"sampler":9,
			"target":{
				"node":14,
				"path":"rotation"
			}
		},
		{
			"sampler":10,
			"target":{
				"node":15,
				"path":"rotation"
			}
		},
		{
			"sampler":11,
			"target":{
				"node":16,
				"path":"rotation"
			}
		},
		{
			"sampler":12,
			"target":{
				"node":17,
				"path":"rotation"
			}
		},
		{
			"sampler":13,
			"target":{
				"node":18,
				"path":"rotation"
			}
		}]
	}]
}