{
	"asset":{
		"version":"2.0",
		"generator":"Created using the official Cinema 4D glTF Exporter 1.000x284978"
	},
	"skins":[{
		"inverseBindMatrices":32,
		"joints":[7,
		6,
		9,
		8,
		10,
		11,
		16,
		13,
		12,
		14,
		15,
		17,
		18,
		19,
		20,
		21,
		22]
	}],
	"scenes":[{
		"nodes":[0]
	}],
	"accessors":[{
		"bufferView":0,
		"type":"SCALAR",
		"min":[0.0],
		"componentType":5126,
		"count":181,
		"byteOffset":0,
		"max":[6.0]
	},
	{
		"bufferView":0,
		"type":"VEC3",
		"min":[-516.8505249023438,
		-108.81364440917969,
		-520.9708251953125],
		"componentType":5126,
		"count":181,
		"byteOffset":724,
		"max":[522.2632446289063,
		113.38469696044922,
		514.05029296875]
	},
	{
		"bufferView":1,
		"type":"SCALAR",
		"min":[0.0],
		"componentType":5126,
		"count":181,
		"byteOffset":0,
		"max":[6.0]
	},
	{
		"bufferView":1,
		"type":"VEC4",
		"min":[-0.07025160640478134,
		-0.07185886055231095,
		-0.739539623260498,
		-0.6680799126625061],
		"componentType":5126,
		"count":181,
		"byteOffset":724,
		"max":[0.7441267371177673,
		0.6686248779296875,
		0.7420492768287659,
		0.6613578796386719]
	},
	{
		"bufferView":2,
		"type":"SCALAR",
		"min":[0.0],
		"componentType":5126,
		"count":181,
		"byteOffset":0,
		"max":[6.0]
	},
	{
		"bufferView":2,
		"type":"VEC4",
		"min":[0.0,
		0.0,
		0.5,
		-0.8660253882408142],
		"componentType":5126,
		"count":181,
		"byteOffset":724,
		"max":[0.0,
		0.0,
		0.9659258127212524,
		-0.258819043636322]
	},
	{
		"bufferView":3,
		"type":"SCALAR",
		"min":[0],
		"componentType":5123,
		"count":126720,
		"byteOffset":0,
		"max":[24693]
	},
	{
		"bufferView":4,
		"type":"VEC3",
		"min":[-3.0706610679626467,
		-3.3433144092559816,
		-0.422014981508255],
		"componentType":5126,
		"count":24694,
		"byteOffset":0,
		"max":[3.070646286010742,
		3.114950180053711,
		1.4326446056365967]
	},
	{
		"bufferView":4,
		"type":"VEC3",
		"min":[-0.9995537996292114,
		-0.9998980760574341,
		-0.9999983906745911],
		"componentType":5126,
		"count":24694,
		"byteOffset":12,
		"max":[0.999553918838501,
		0.9995248317718506,
		0.9999046921730042]
	},
	{
		"bufferView":4,
		"type":"VEC2",
		"min":[0.01101209782063961,
		0.010872920975089074],
		"componentType":5126,
		"count":24694,
		"byteOffset":24,
		"max":[0.8648641109466553,
		0.9885083436965942]
	},
	{
		"bufferView":5,
		"type":"VEC4",
		"min":[0,
		0,
		0,
		0],
		"componentType":5123,
		"count":24694,
		"byteOffset":0,
		"max":[16,
		16,
		14,
		13]
	},
	{
		"bufferView":6,
		"type":"VEC4",
		"min":[0.37499046325683596,
		0.0,
		0.0,
		0.0],
		"componentType":5126,
		"count":24694,
		"byteOffset":0,
		"max":[1.0,
		0.49999237060546877,
		0.24998855590820313,
		0.0]
	},
	{
		"bufferView":7,
		"type":"SCALAR",
		"min":[0.0],
		"componentType":5126,
		"count":181,
		"byteOffset":0,
		"max":[6.0]
	},
	{
		"bufferView":7,
		"type":"VEC4",
		"min":[-0.005114933010190725,
		0.0008784334058873355,
		-0.011979296803474427,
		-0.9998961091041565],
		"componentType":5126,
		"count":181,
		"byteOffset":724,
		"max":[0.00029484741389751434,
		0.4204675257205963,
		0.011036287993192673,
		0.9999454617500305]
	},
	{
		"bufferView":8,
		"type":"SCALAR",
		"min":[0.0],
		"componentType":5126,
		"count":181,
		"byteOffset":0,
		"max":[6.0]
	},
	{
		"bufferView":8,
		"type":"VEC4",
		"min":[-0.0009050795342773199,
		-0.0000033423373224650278,
		-0.0036928392946720125,
		-0.9999927878379822],
		"componentType":5126,
		"count":181,
		"byteOffset":724,
		"max":[0.0010652975179255009,
		0.043615732342004779,
		0.0036928392946720125,
		0.9999927878379822]
	},
	{
		"bufferView":9,
		"type":"SCALAR",
		"min":[0.0],
		"componentType":5126,
		"count":181,
		"byteOffset":0,
		"max":[6.0]
	},
	{
		"bufferView":9,
		"type":"VEC4",
		"min":[-0.005114931613206863,
		-0.42046740651130679,
		-0.011979131028056145,
		-0.9999454617500305],
		"componentType":5126,
		"count":181,
		"byteOffset":724,
		"max":[0.0002947733737528324,
		-0.00087829923722893,
		0.011036178097128868,
		0.9998961091041565]
	},
	{
		"bufferView":10,
		"type":"SCALAR",
		"min":[0.0],
		"componentType":5126,
		"count":181,
		"byteOffset":0,
		"max":[6.0]
	},
	{
		"bufferView":10,
		"type":"VEC4",
		"min":[-0.0008284616051241756,
		-0.04361620172858238,
		-0.003507679095491767,
		-0.9999935030937195],
		"componentType":5126,
		"count":181,
		"byteOffset":724,
		"max":[0.000980675918981433,
		0.0000029059960979793688,
		0.003507679095491767,
		0.9999935030937195]
	},
	{
		"bufferView":11,
		"type":"SCALAR",
		"min":[0.0],
		"componentType":5126,
		"count":181,
		"byteOffset":0,
		"max":[6.0]
	},
	{
		"bufferView":11,
		"type":"VEC4",
		"min":[0.0007346103084273636,
		-0.002396299736574292,
		-0.9999968409538269,
		0.0000017603548485567445],
		"componentType":5126,
		"count":181,
		"byteOffset":724,
		"max":[0.06754578649997711,
		0.0023963036946952345,
		0.9999952912330627,
		0.0001618607057025656]
	},
	{
		"bufferView":12,
		"type":"SCALAR",
		"min":[0.0],
		"componentType":5126,
		"count":181,
		"byteOffset":0,
		"max":[6.0]
	},
	{
		"bufferView":12,
		"type":"VEC4",
		"min":[-0.003994378261268139,
		-0.043787334114313129,
		-0.06369355320930481,
		-0.9979609251022339],
		"componentType":5126,
		"count":181,
		"byteOffset":724,
		"max":[0.006221581716090441,
		-0.00033258748590014875,
		0.0638110414147377,
		0.997961163520813]
	},
	{
		"bufferView":13,
		"type":"SCALAR",
		"min":[0.0],
		"componentType":5126,
		"count":181,
		"byteOffset":0,
		"max":[6.0]
	},
	{
		"bufferView":13,
		"type":"VEC4",
		"min":[-0.0029159304685890676,
		0.00067332194885239,
		-0.08714696764945984,
		-0.9961873292922974],
		"componentType":5126,
		"count":181,
		"byteOffset":724,
		"max":[0.010537097230553627,
		0.08656640350818634,
		0.08720529824495316,
		0.9961901307106018]
	},
	{
		"bufferView":14,
		"type":"SCALAR",
		"min":[0.0],
		"componentType":5126,
		"count":181,
		"byteOffset":0,
		"max":[6.0]
	},
	{
		"bufferView":14,
		"type":"VEC4",
		"min":[-0.006922272965312004,
		0.00039676856249570847,
		-0.040765322744846347,
		-0.9991443753242493],
		"componentType":5126,
		"count":181,
		"byteOffset":724,
		"max":[0.00970255583524704,
		0.06785588711500168,
		0.04103389382362366,
		0.9991442561149597]
	},
	{
		"bufferView":15,
		"type":"SCALAR",
		"min":[0.0],
		"componentType":5126,
		"count":181,
		"byteOffset":0,
		"max":[6.0]
	},
	{
		"bufferView":15,
		"type":"VEC4",
		"min":[-0.004900807049125433,
		-0.04361886531114578,
		8.85374959125329e-7,
		-0.9999879598617554],
		"componentType":5126,
		"count":181,
		"byteOffset":724,
		"max":[0.004900800995528698,
		-0.00017913663759827614,
		0.00021377021039370447,
		0.9999866485595703]
	},
	{
		"bufferView":16,
		"type":"SCALAR",
		"min":[0.0],
		"componentType":5126,
		"count":181,
		"byteOffset":0,
		"max":[6.0]
	},
	{
		"bufferView":16,
		"type":"VEC4",
		"min":[-0.004002376459538937,
		-0.00007952638407004997,
		-0.01986571028828621,
		-0.9997946619987488],
		"componentType":5126,
		"count":181,
		"byteOffset":724,
		"max":[0.004865097347646952,
		0.04353097826242447,
		0.01986571028828621,
		0.9997946619987488]
	},
	{
		"bufferView":17,
		"type":"MAT4",
		"min":[-0.9879420399665833,
		-0.07632191479206085,
		-0.5541318655014038,
		0.0,
		-0.9998822808265686,
		-0.9999357461929321,
		-0.4039144814014435,
		0.0,
		-0.1419769823551178,
		-0.9998822808265686,
		-0.004307474009692669,
		0.0,
		-3.351830005645752,
		-1.5801984071731568,
		-0.012808618135750294,
		1.0],
		"componentType":5126,
		"count":17,
		"byteOffset":0,
		"max":[0.987942099571228,
		0.03594820201396942,
		1.0,
		0.0,
		0.993948757648468,
		0.9999341368675232,
		0.13483954966068269,
		0.0,
		0.5541771650314331,
		0.9998807311058044,
		0.9885810613632202,
		0.0,
		-0.09359347075223923,
		1.580841064453125,
		0.8698378801345825,
		1.0]
	}],
	"nodes":[{
		"name":"MantaBake",
		"translation":[0.0,
		0.0,
		0.0],
		"rotation":[0.0,
		0.0,
		0.0,
		-1.0],
		"scale":[1.0,
		1.0,
		1.0],
		"children":[1]
	},
	{
		"name":"Cloner.1",
		"translation":[-511.2541198730469,
		-102.86215209960938,
		-60.17457962036133],
		"rotation":[0.0915871113538742,
		0.0011464956915006042,
		-0.7384305596351624,
		-0.6680799126625061],
		"scale":[1.0,
		1.0,
		1.0],
		"children":[2]
	},
	{
		"name":"Manta",
		"translation":[0.0,
		0.0,
		0.0],
		"rotation":[0.0,
		0.0,
		0.9659258127212524,
		-0.258819043636322],
		"scale":[25.0,
		25.0,
		25.0],
		"children":[3,
		6]
	},
	{
		"name":"Subdivision Surface",
		"translation":[0.0,
		0.21858780086040498,
		-1.6698096990585328],
		"rotation":[0.7071067690849304,
		0.0,
		0.0,
		-0.7071067690849304],
		"scale":[1.0,
		1.0,
		1.0],
		"children":[4]
	},
	{
		"name":"object7",
		"children":[5]
	},
	{
		"name":"object7",
		"mesh":0,
		"skin":0
	},
	{
		"name":"Bone032",
		"translation":[-3.133837012114782e-8,
		0.22533679008483888,
		-0.7004045844078064],
		"rotation":[0.7070859670639038,
		0.005424920469522476,
		0.7070859670639038,
		0.005424920469522476],
		"scale":[1.0,
		1.0,
		1.0],
		"children":[7,
		8,
		12,
		16]
	},
	{
		"name":"Bone033",
		"translation":[1.8003957271575928,
		3.337860050578456e-7,
		5.7221551941211149e-8],
		"rotation":[0.0,
		0.0,
		0.0,
		-1.0],
		"scale":[1.0,
		1.0,
		1.0]
	},
	{
		"name":"Bone034",
		"translation":[0.5762609839439392,
		0.10427508503198624,
		0.13241851329803468],
		"rotation":[0.5485827326774597,
		-0.5237874984741211,
		0.45466893911361697,
		0.46688312292099],
		"scale":[1.0,
		1.0,
		1.0],
		"children":[9]
	},
	{
		"name":"Bone035",
		"translation":[0.9056299328804016,
		1.5497207073167375e-7,
		2.2204460823375377e-17],
		"rotation":[-0.002111551584675908,
		0.17357780039310456,
		-0.011979296803474427,
		-0.9847450256347656],
		"scale":[0.9999999403953552,
		0.9999999403953552,
		1.0],
		"children":[10]
	},
	{
		"name":"Bone036",
		"translation":[1.119986653327942,
		-1.1920929132713809e-8,
		0.0],
		"rotation":[0.0010652975179255009,
		0.043615732342004779,
		-0.0036498454865068199,
		-0.9990411400794983],
		"scale":[0.9999998211860657,
		1.0000001192092896,
		1.0000001192092896],
		"children":[11]
	},
	{
		"name":"Bone037",
		"translation":[1.3530187606811524,
		1.0323129018274813e-8,
		3.2708049957363985e-7],
		"rotation":[-4.93824356406769e-11,
		-3.975803247822235e-17,
		1.9633484520907467e-27,
		-1.0],
		"scale":[1.0,
		1.0000001192092896,
		1.0]
	},
	{
		"name":"Bone034(mirrored)",
		"translation":[0.5762609243392944,
		0.10427507013082504,
		-0.1327604502439499],
		"rotation":[-0.46688327193260195,
		-0.45466896891593935,
		0.5237875580787659,
		-0.5485824346542358],
		"scale":[1.0000001192092896,
		0.9999998807907105,
		1.0000001192092896],
		"children":[13]
	},
	{
		"name":"Bone035(mirrored)",
		"translation":[0.9056296348571777,
		2.3841858265427619e-8,
		3.099441414633475e-7],
		"rotation":[-0.0021114556584507229,
		-0.1735779345035553,
		-0.011979131028056145,
		0.9847450256347656],
		"scale":[0.9999998807907105,
		1.0000001192092896,
		0.9999998807907105],
		"children":[14]
	},
	{
		"name":"Bone036(mirrored)",
		"translation":[1.1199862957000733,
		-1.3113022134803033e-7,
		5.329070729958988e-16],
		"rotation":[0.000980675918981433,
		-0.04361620172858238,
		-0.003468203591182828,
		0.9990418553352356],
		"scale":[1.0,
		0.9999999403953552,
		0.9999999403953552],
		"children":[15]
	},
	{
		"name":"Bone037(mirrored)",
		"translation":[1.3530189990997315,
		-1.9669532491661813e-7,
		8.1062319168268e-7],
		"rotation":[7.404016599821262e-8,
		-1.7997051331847259e-14,
		-2.384185791015625e-7,
		1.0],
		"scale":[1.0000004768371583,
		1.0000001192092896,
		0.9999999403953552]
	},
	{
		"name":"Bone025",
		"translation":[-1.063849925994873,
		-0.024359513074159623,
		-2.3841858265427619e-8],
		"rotation":[0.06754578649997711,
		0.0023908314760774376,
		-0.9977133274078369,
		0.0001618607057025656],
		"scale":[1.0,
		1.0,
		1.0],
		"children":[17]
	},
	{
		"name":"Bone026",
		"translation":[0.4558677673339844,
		3.9339064983323626e-7,
		-4.3200997792113007e-13],
		"rotation":[0.006221581716090441,
		-0.03414105623960495,
		-0.06351923942565918,
		0.9973770380020142],
		"scale":[0.9999998807907105,
		0.9999998807907105,
		1.0],
		"children":[18]
	},
	{
		"name":"Bone027",
		"translation":[0.6020129919052124,
		4.7683716530855239e-8,
		1.2903146284770629e-7],
		"rotation":[0.010537097230553627,
		0.08656640350818634,
		-0.08656640350818634,
		-0.9924220442771912],
		"scale":[1.0000003576278687,
		1.0000003576278687,
		1.0],
		"children":[19]
	},
	{
		"name":"Bone028",
		"translation":[0.5866691470146179,
		8.106231348392612e-7,
		7.348977248966549e-8],
		"rotation":[0.00970255583524704,
		0.06785588711500168,
		-0.04020196571946144,
		-0.9968376159667969],
		"scale":[1.0,
		1.0,
		1.0],
		"children":[20]
	},
	{
		"name":"Bone029",
		"translation":[0.5399318933486939,
		2.3841860041784458e-8,
		6.630020976672313e-8],
		"rotation":[0.004896142985671759,
		-0.04361886531114578,
		0.00021377021039370447,
		0.9990362524986267],
		"scale":[0.9999998211860657,
		0.9999998211860657,
		1.0],
		"children":[21]
	},
	{
		"name":"Bone030",
		"translation":[0.48808708786964419,
		2.8865797581462888e-16,
		5.9005106578524649e-8],
		"rotation":[0.004865097347646952,
		0.04353097826242447,
		-0.019672222435474397,
		-0.9988465309143066],
		"scale":[0.9999997615814209,
		0.9999997615814209,
		1.0],
		"children":[22]
	},
	{
		"name":"Bone031",
		"translation":[0.4558528959751129,
		-8.940696183401542e-9,
		5.454285201267339e-8],
		"rotation":[0.0,
		0.0,
		0.0,
		-1.0],
		"scale":[1.0000001192092896,
		1.0000001192092896,
		1.0]
	}],
	"bufferViews":[{
		"buffer":0,
		"byteOffset":0,
		"byteLength":2896
	},
	{
		"buffer":0,
		"byteOffset":2896,
		"byteLength":3620
	},
	{
		"buffer":1,
		"byteOffset":0,
		"byteLength":3620
	},
	{
		"buffer":2,
		"byteOffset":0,
		"byteLength":253440,
		"target":34963
	},
	{
		"buffer":2,
		"byteOffset":253440,
		"byteLength":790208,
		"byteStride":32,
		"target":34962
	},
	{
		"buffer":2,
		"byteOffset":1043648,
		"byteLength":197552,
		"target":34962
	},
	{
		"buffer":2,
		"byteOffset":1241200,
		"byteLength":395104,
		"target":34962
	},
	{
		"buffer":3,
		"byteOffset":0,
		"byteLength":3620
	},
	{
		"buffer":4,
		"byteOffset":0,
		"byteLength":3620
	},
	{
		"buffer":5,
		"byteOffset":0,
		"byteLength":3620
	},
	{
		"buffer":6,
		"byteOffset":0,
		"byteLength":3620
	},
	{
		"buffer":7,
		"byteOffset":0,
		"byteLength":3620
	},
	{
		"buffer":8,
		"byteOffset":0,
		"byteLength":3620
	},
	{
		"buffer":9,
		"byteOffset":0,
		"byteLength":3620
	},
	{
		"buffer":10,
		"byteOffset":0,
		"byteLength":3620
	},
	{
		"buffer":11,
		"byteOffset":0,
		"byteLength":3620
	},
	{
		"buffer":12,
		"byteOffset":0,
		"byteLength":3620
	},
	{
		"buffer":13,
		"byteOffset":0,
		"byteLength":1088
	}],
	"meshes":[{
		"name":"object7",
		"primitives":[{
			"attributes":{
				"POSITION":7,
				"NORMAL":8,
				"TEXCOORD_0":9,
				"JOINTS_0":10,
				"WEIGHTS_0":11
			},
			"indices":6,
			"material":0
		}]
	}],
	"buffers":[{
		"uri":"data:application/octet-stream;base64,",
		"byteLength":6516
	},
	{
		"uri":"data:application/octet-stream;base64,",
		"byteLength":3620
	},
	{
		"uri":"data:application/octet-stream;base64,",
		"byteLength":1636304
	},
	{
		"uri":"data:application/octet-stream;base64,",
		"byteLength":3620
	},
	{
		"uri":"data:application/octet-stream;base64,",
		"byteLength":3620
	},
	{
		"uri":"data:application/octet-stream;base64,",
		"byteLength":3620
	},
	{
		"uri":"data:application/octet-stream;base64,",
		"byteLength":3620
	},
	{
		"uri":"data:application/octet-stream;base64,",
		"byteLength":3620
	},
	{
		"uri":"data:application/octet-stream;base64,",
		"byteLength":3620
	},
	{
		"uri":"data:application/octet-stream;base64,",
		"byteLength":3620
	},
	{
		"uri":"data:application/octet-stream;base64,",
		"byteLength":3620
	},
	{
		"uri":"data:application/octet-stream;base64,",
		"byteLength":3620
	},
	{
		"uri":"data:application/octet-stream;base64,",
		"byteLength":3620
	},
	{
		"uri":"data:application/octet-stream;base64,",
		"byteLength":1088
	}],
	"materials":[{
		"pbrMetallicRoughness":{
			"baseColorTexture":{
				"index":0
			},
			"baseColorFactor":[0.8,
			0.8,
			0.8,
			1.0],
			"metallicRoughnessTexture":{
				"index":1
			},
			"metallicFactor":0.15,
			"roughnessFactor":0.35000000000000006
		},
		"normalTexture":{
			"index":2,
			"scale":0.45
		},
		"emissiveTexture":{
			"index":3
		},
		"emissiveFactor":[1.0,
		1.0,
		1.0],
		"alphaMode":"OPAQUE",
		"doubleSided":false,
		"name":"Mat"
	}],
	"images":[{
		"uri":"data:image/jpeg;base64,"
	},
	{
		"uri":"data:image/jpeg;base64,"
	},
	{
		"uri":"data:image/jpeg;base64,"
	},
	{
		"uri":"data:image/jpeg;base64,"
	}],
	"samplers":[{
		"magFilter":9729,
		"minFilter":9729,
		"wrapS":10497,
		"wrapT":10497
	},
	{
		"magFilter":9729,
		"minFilter":9729,
		"wrapS":10497,
		"wrapT":10497
	},
	{
		"magFilter":9729,
		"minFilter":9729,
		"wrapS":10497,
		"wrapT":10497
	},
	{
		"magFilter":9729,
		"minFilter":9729,
		"wrapS":10497,
		"wrapT":10497
	}],
	"textures":[{
		"sampler":0,
		"source":0
	},
	{
		"sampler":1,
		"source":1
	},
	{
		"sampler":2,
		"source":2
	},
	{
		"sampler":3,
		"source":3
	}],
	"animations":[{
		"samplers":[{
			"input":0,
			"interpolation":"LINEAR",
			"output":1
		},
		{
			"input":2,
			"interpolation":"LINEAR",
			"output":3
		},
		{
			"input":4,
			"interpolation":"LINEAR",
			"output":5
		},
		{
			"input":12,
			"interpolation":"LINEAR",
			"output":13
		},
		{
			"input":14,
			"interpolation":"LINEAR",
			"output":15
		},
		{
			"input":16,
			"interpolation":"LINEAR",
			"output":17
		},
		{
			"input":18,
			"interpolation":"LINEAR",
			"output":19
		},
		{
			"input":20,
			"interpolation":"LINEAR",
			"output":21
		},
		{
			"input":22,
			"interpolation":"LINEAR",
			"output":23
		},
		{
			"input":24,
			"interpolation":"LINEAR",
			"output":25
		},
		{
			"input":26,
			"interpolation":"LINEAR",
			"output":27
		},
		{
			"input":28,
			"interpolation":"LINEAR",
			"output":29
		},
		{
			"input":30,
			"interpolation":"LINEAR",
			"output":31
		}],
		"channels":[{
			"target":{
				"node":1,
				"path":"translation"
			},
			"sampler":0
		},
		{
			"target":{
				"node":1,
				"path":"rotation"
			},
			"sampler":1
		},
		{
			"target":{
				"node":2,
				"path":"rotation"
			},
			"sampler":2
		},
		{
			"target":{
				"node":9,
				"path":"rotation"
			},
			"sampler":3
		},
		{
			"target":{
				"node":10,
				"path":"rotation"
			},
			"sampler":4
		},
		{
			"target":{
				"node":13,
				"path":"rotation"
			},
			"sampler":5
		},
		{
			"target":{
				"node":14,
				"path":"rotation"
			},
			"sampler":6
		},
		{
			"target":{
				"node":16,
				"path":"rotation"
			},
			"sampler":7
		},
		{
			"target":{
				"node":17,
				"path":"rotation"
			},
			"sampler":8
		},
		{
			"target":{
				"node":18,
				"path":"rotation"
			},
			"sampler":9
		},
		{
			"target":{
				"node":19,
				"path":"rotation"
			},
			"sampler":10
		},
		{
			"target":{
				"node":20,
				"path":"rotation"
			},
			"sampler":11
		},
		{
			"target":{
				"node":21,
				"path":"rotation"
			},
			"sampler":12
		}]
	}]
}